<?xml version="1.0" encoding="utf-8"?>
<!-- Generator: Adobe Illustrator 26.0.2, SVG Export Plug-In . SVG Version: 6.00 Build 0)  -->
<svg version="1.1" id="Camada_1" xmlns="http://www.w3.org/2000/svg" xmlns:xlink="http://www.w3.org/1999/xlink" x="0px" y="0px"
	 viewBox="0 0 804.3 437" style="enable-background:new 0 0 804.3 437;" xml:space="preserve">
<style type="text/css">
	.st0{fill:#FFFFFF;stroke:#000000;stroke-miterlimit:10;}
	.st1{opacity:0.2;fill:#C0C0C0;enable-background:new    ;}
	.st2{fill:#FFFFFF;}
	.st3{fill:none;stroke:#000000;stroke-miterlimit:10;}
	.st4{font-family:'Arial-BoldMT';}
	.st5{font-size:13px;}
	.st6{font-family:'ArialMT';}
</style>
<rect class="st0" width="804.3" height="437"/>
<g>
	<g transform="translate(-62,-126) scale(1,1)">
		<rect x="79" y="231" class="st1" width="123.6" height="60"/>
	</g>
	<g transform="translate(-62,-126) scale(1,1)">
		<rect x="72" y="224" class="st2" width="123.6" height="60"/>
	</g>
	<g transform="translate(-62,-126) scale(1,1)">
		<path class="st3" d="M72,224h123.6v60H72V224z"/>
	</g>
	<g transform="translate(-62,-126) scale(1,1)">
		<path class="st3" d="M72,247h123.6"/>
	</g>
	<g transform="translate(-62,-126) scale(1,1)">
		<path class="st3" d="M100.1,247v37"/>
	</g>
	<g transform="translate(-62,-126) scale(1,1)">
		<path class="st3" d="M186.6,247v37"/>
	</g>
	<g transform="translate(-62,-126) scale(1,1)">
		<g>
			<path class="st3" d="M0,0"/>
			<text transform="matrix(1 0 0 1 105.6382 239.5386)" class="st4 st5">GENERO</text>
		</g>
	</g>
	<g transform="translate(-62,-126) scale(1,1)">
		<g>
			<path d="M0,0"/>
			<text transform="matrix(1 0 0 1 77 260.9438)" class="st6 st5">PK</text>
		</g>
	</g>
	<g transform="translate(-62,-126) scale(1,1)">
		<g>
			<path d="M0,0"/>
			<text transform="matrix(1 0 0 1 105.0591 261.0771)" class="st6 st5">CDGENERO</text>
		</g>
	</g>
	<g transform="translate(-62,-126) scale(1,1)">
		<g>
			<path d="M0,0"/>
		</g>
	</g>
	<g transform="translate(-62,-126) scale(1,1)">
		<g>
			<path d="M0,0"/>
		</g>
	</g>
	<g transform="translate(-62,-126) scale(1,1)">
		<g>
			<path d="M0,0"/>
		</g>
	</g>
	<g transform="translate(-62,-126) scale(1,1)">
		<g>
			<path d="M0,0"/>
			<text transform="matrix(1 0 0 1 105.0591 276.0771)" class="st6 st5">NMGENERO</text>
		</g>
	</g>
	<g transform="translate(-62,-126) scale(1,1)">
		<g>
			<path d="M0,0"/>
		</g>
	</g>
	<g transform="translate(-62,-126) scale(1,1)">
		<g>
			<path d="M0,0"/>
		</g>
	</g>
	<g transform="translate(-62,-126) scale(1,1)">
		<rect x="391" y="191" class="st1" width="142.9" height="150"/>
	</g>
	<g transform="translate(-62,-126) scale(1,1)">
		<rect x="384" y="184" class="st2" width="142.9" height="150"/>
	</g>
	<g transform="translate(-62,-126) scale(1,1)">
		<path class="st3" d="M384,184h142.9v150H384V184z"/>
	</g>
	<g transform="translate(-62,-126) scale(1,1)">
		<path class="st3" d="M384,207h142.9"/>
	</g>
	<g transform="translate(-62,-126) scale(1,1)">
		<path class="st3" d="M412.1,207v127"/>
	</g>
	<g transform="translate(-62,-126) scale(1,1)">
		<path class="st3" d="M517.9,207v127"/>
	</g>
	<g transform="translate(-62,-126) scale(1,1)">
		<g>
			<path class="st3" d="M0,0"/>
			<text transform="matrix(1 0 0 1 435.9385 199.4719)" class="st4 st5">FILME</text>
		</g>
	</g>
	<g transform="translate(-62,-126) scale(1,1)">
		<g>
			<path d="M0,0"/>
			<text transform="matrix(1 0 0 1 389 220.9438)" class="st6 st5">PK</text>
		</g>
	</g>
	<g transform="translate(-62,-126) scale(1,1)">
		<g>
			<path d="M0,0"/>
			<text transform="matrix(1 0 0 1 417.0591 221.0771)" class="st6 st5">CDFILME</text>
		</g>
	</g>
	<g transform="translate(-62,-126) scale(1,1)">
		<g>
			<path d="M0,0"/>
		</g>
	</g>
	<g transform="translate(-62,-126) scale(1,1)">
		<g>
			<path d="M0,0"/>
		</g>
	</g>
	<g transform="translate(-62,-126) scale(1,1)">
		<g>
			<path d="M0,0"/>
			<text transform="matrix(1 0 0 1 389 235.9438)" class="st6 st5">FK</text>
		</g>
	</g>
	<g transform="translate(-62,-126) scale(1,1)">
		<g>
			<path d="M0,0"/>
			<text transform="matrix(1 0 0 1 417.0591 236.0771)" class="st6 st5">CDGENERO</text>
		</g>
	</g>
	<g transform="translate(-62,-126) scale(1,1)">
		<g>
			<path d="M0,0"/>
		</g>
	</g>
	<g transform="translate(-62,-126) scale(1,1)">
		<g>
			<path d="M0,0"/>
		</g>
	</g>
	<g transform="translate(-62,-126) scale(1,1)">
		<g>
			<path d="M0,0"/>
		</g>
	</g>
	<g transform="translate(-62,-126) scale(1,1)">
		<g>
			<path d="M0,0"/>
			<text transform="matrix(1 0 0 1 417.0591 250.9438)" class="st6 st5">NMFILME</text>
		</g>
	</g>
	<g transform="translate(-62,-126) scale(1,1)">
		<g>
			<path d="M0,0"/>
		</g>
	</g>
	<g transform="translate(-62,-126) scale(1,1)">
		<g>
			<path d="M0,0"/>
		</g>
	</g>
	<g transform="translate(-62,-126) scale(1,1)">
		<g>
			<path d="M0,0"/>
		</g>
	</g>
	<g transform="translate(-62,-126) scale(1,1)">
		<g>
			<path d="M0,0"/>
			<text transform="matrix(1 0 0 1 417.0591 266.0771)" class="st6 st5">DURACAO</text>
		</g>
	</g>
	<g transform="translate(-62,-126) scale(1,1)">
		<g>
			<path d="M0,0"/>
		</g>
	</g>
	<g transform="translate(-62,-126) scale(1,1)">
		<g>
			<path d="M0,0"/>
		</g>
	</g>
	<g transform="translate(-62,-126) scale(1,1)">
		<g>
			<path d="M0,0"/>
		</g>
	</g>
	<g transform="translate(-62,-126) scale(1,1)">
		<g>
			<path d="M0,0"/>
			<text transform="matrix(1 0 0 1 417.0591 281.0771)" class="st6 st5">SINOPSE</text>
		</g>
	</g>
	<g transform="translate(-62,-126) scale(1,1)">
		<g>
			<path d="M0,0"/>
		</g>
	</g>
	<g transform="translate(-62,-126) scale(1,1)">
		<g>
			<path d="M0,0"/>
		</g>
	</g>
	<g transform="translate(-62,-126) scale(1,1)">
		<g>
			<path d="M0,0"/>
		</g>
	</g>
	<g transform="translate(-62,-126) scale(1,1)">
		<g>
			<path d="M0,0"/>
			<text transform="matrix(1 0 0 1 417.0591 296.0771)" class="st6 st5">FOTO</text>
		</g>
	</g>
	<g transform="translate(-62,-126) scale(1,1)">
		<g>
			<path d="M0,0"/>
		</g>
	</g>
	<g transform="translate(-62,-126) scale(1,1)">
		<g>
			<path d="M0,0"/>
		</g>
	</g>
	<g transform="translate(-62,-126) scale(1,1)">
		<g>
			<path d="M0,0"/>
		</g>
	</g>
	<g transform="translate(-62,-126) scale(1,1)">
		<g>
			<path d="M0,0"/>
			<text transform="matrix(1 0 0 1 417.0591 311.0771)" class="st6 st5">STLOCADO</text>
		</g>
	</g>
	<g transform="translate(-62,-126) scale(1,1)">
		<g>
			<path d="M0,0"/>
		</g>
	</g>
	<g transform="translate(-62,-126) scale(1,1)">
		<g>
			<path d="M0,0"/>
		</g>
	</g>
	<g transform="translate(-62,-126) scale(1,1)">
		<g>
			<path d="M0,0"/>
			<text transform="matrix(1 0 0 1 389 325.9438)" class="st6 st5">FK</text>
		</g>
	</g>
	<g transform="translate(-62,-126) scale(1,1)">
		<g>
			<path d="M0,0"/>
			<text transform="matrix(1 0 0 1 417.0591 326.0771)" class="st6 st5">CDCATEGORIA</text>
		</g>
	</g>
	<g transform="translate(-62,-126) scale(1,1)">
		<g>
			<path d="M0,0"/>
		</g>
	</g>
	<g transform="translate(-62,-126) scale(1,1)">
		<g>
			<path d="M0,0"/>
		</g>
	</g>
	<g transform="translate(-62,-126) scale(1,1)">
		<rect x="719" y="231" class="st1" width="144.3" height="75"/>
	</g>
	<g transform="translate(-62,-126) scale(1,1)">
		<rect x="712" y="224" class="st2" width="144.3" height="75"/>
	</g>
	<g transform="translate(-62,-126) scale(1,1)">
		<path class="st3" d="M712,224h144.3v75H712V224z"/>
	</g>
	<g transform="translate(-62,-126) scale(1,1)">
		<path class="st3" d="M712,247h144.3"/>
	</g>
	<g transform="translate(-62,-126) scale(1,1)">
		<path class="st3" d="M740.1,247v52"/>
	</g>
	<g transform="translate(-62,-126) scale(1,1)">
		<path class="st3" d="M847.3,247v52"/>
	</g>
	<g transform="translate(-62,-126) scale(1,1)">
		<g>
			<path class="st3" d="M0,0"/>
			<text transform="matrix(1 0 0 1 745.6382 239.5386)" class="st4 st5">CATEGORIA</text>
		</g>
	</g>
	<g transform="translate(-62,-126) scale(1,1)">
		<g>
			<path d="M0,0"/>
			<text transform="matrix(1 0 0 1 717 260.9438)" class="st6 st5">PK</text>
		</g>
	</g>
	<g transform="translate(-62,-126) scale(1,1)">
		<g>
			<path d="M0,0"/>
			<text transform="matrix(1 0 0 1 745.0591 261.0771)" class="st6 st5">CDGATEGORIA</text>
		</g>
	</g>
	<g transform="translate(-62,-126) scale(1,1)">
		<g>
			<path d="M0,0"/>
		</g>
	</g>
	<g transform="translate(-62,-126) scale(1,1)">
		<g>
			<path d="M0,0"/>
		</g>
	</g>
	<g transform="translate(-62,-126) scale(1,1)">
		<g>
			<path d="M0,0"/>
		</g>
	</g>
	<g transform="translate(-62,-126) scale(1,1)">
		<g>
			<path d="M0,0"/>
			<text transform="matrix(1 0 0 1 745.0591 276.0771)" class="st6 st5">NMCATEGORIA</text>
		</g>
	</g>
	<g transform="translate(-62,-126) scale(1,1)">
		<g>
			<path d="M0,0"/>
		</g>
	</g>
	<g transform="translate(-62,-126) scale(1,1)">
		<g>
			<path d="M0,0"/>
		</g>
	</g>
	<g transform="translate(-62,-126) scale(1,1)">
		<g>
			<path d="M0,0"/>
		</g>
	</g>
	<g transform="translate(-62,-126) scale(1,1)">
		<g>
			<path d="M0,0"/>
			<text transform="matrix(1 0 0 1 745.0591 290.9438)" class="st6 st5">VLDIARIA</text>
		</g>
	</g>
	<g transform="translate(-62,-126) scale(1,1)">
		<g>
			<path d="M0,0"/>
		</g>
	</g>
	<g transform="translate(-62,-126) scale(1,1)">
		<g>
			<path d="M0,0"/>
		</g>
	</g>
	<g transform="translate(-62,-126) scale(1,1)">
		<rect x="695" y="439" class="st1" width="124.3" height="120"/>
	</g>
	<g transform="translate(-62,-126) scale(1,1)">
		<rect x="688" y="432" class="st2" width="124.3" height="120"/>
	</g>
	<g transform="translate(-62,-126) scale(1,1)">
		<path class="st3" d="M688,432h124.3v120H688V432z"/>
	</g>
	<g transform="translate(-62,-126) scale(1,1)">
		<path class="st3" d="M688,455h124.3"/>
	</g>
	<g transform="translate(-62,-126) scale(1,1)">
		<path class="st3" d="M716.1,455v97"/>
	</g>
	<g transform="translate(-62,-126) scale(1,1)">
		<path class="st3" d="M803.3,455v97"/>
	</g>
	<g transform="translate(-62,-126) scale(1,1)">
		<g>
			<path class="st3" d="M0,0"/>
			<text transform="matrix(1 0 0 1 722.3618 447.5386)" class="st4 st5">CLIENTE</text>
		</g>
	</g>
	<g transform="translate(-62,-126) scale(1,1)">
		<g>
			<path d="M0,0"/>
			<text transform="matrix(1 0 0 1 693 468.9438)" class="st6 st5">PK</text>
		</g>
	</g>
	<g transform="translate(-62,-126) scale(1,1)">
		<g>
			<path d="M0,0"/>
			<text transform="matrix(1 0 0 1 721.0591 469.0771)" class="st6 st5">CDCLIENTE</text>
		</g>
	</g>
	<g transform="translate(-62,-126) scale(1,1)">
		<g>
			<path d="M0,0"/>
		</g>
	</g>
	<g transform="translate(-62,-126) scale(1,1)">
		<g>
			<path d="M0,0"/>
		</g>
	</g>
	<g transform="translate(-62,-126) scale(1,1)">
		<g>
			<path d="M0,0"/>
		</g>
	</g>
	<g transform="translate(-62,-126) scale(1,1)">
		<g>
			<path d="M0,0"/>
			<text transform="matrix(1 0 0 1 721.0591 484.0771)" class="st6 st5">NMCLIENTE</text>
		</g>
	</g>
	<g transform="translate(-62,-126) scale(1,1)">
		<g>
			<path d="M0,0"/>
		</g>
	</g>
	<g transform="translate(-62,-126) scale(1,1)">
		<g>
			<path d="M0,0"/>
		</g>
	</g>
	<g transform="translate(-62,-126) scale(1,1)">
		<g>
			<path d="M0,0"/>
		</g>
	</g>
	<g transform="translate(-62,-126) scale(1,1)">
		<g>
			<path d="M0,0"/>
			<text transform="matrix(1 0 0 1 721.0591 499.0771)" class="st6 st5">ENDERECO</text>
		</g>
	</g>
	<g transform="translate(-62,-126) scale(1,1)">
		<g>
			<path d="M0,0"/>
		</g>
	</g>
	<g transform="translate(-62,-126) scale(1,1)">
		<g>
			<path d="M0,0"/>
		</g>
	</g>
	<g transform="translate(-62,-126) scale(1,1)">
		<g>
			<path d="M0,0"/>
		</g>
	</g>
	<g transform="translate(-62,-126) scale(1,1)">
		<g>
			<path d="M0,0"/>
			<text transform="matrix(1 0 0 1 721.0591 514.0771)" class="st6 st5">TELELFONE</text>
		</g>
	</g>
	<g transform="translate(-62,-126) scale(1,1)">
		<g>
			<path d="M0,0"/>
		</g>
	</g>
	<g transform="translate(-62,-126) scale(1,1)">
		<g>
			<path d="M0,0"/>
		</g>
	</g>
	<g transform="translate(-62,-126) scale(1,1)">
		<g>
			<path d="M0,0"/>
		</g>
	</g>
	<g transform="translate(-62,-126) scale(1,1)">
		<g>
			<path d="M0,0"/>
			<text transform="matrix(1 0 0 1 721.0591 529.0771)" class="st6 st5">RG</text>
		</g>
	</g>
	<g transform="translate(-62,-126) scale(1,1)">
		<g>
			<path d="M0,0"/>
		</g>
	</g>
	<g transform="translate(-62,-126) scale(1,1)">
		<g>
			<path d="M0,0"/>
		</g>
	</g>
	<g transform="translate(-62,-126) scale(1,1)">
		<g>
			<path d="M0,0"/>
		</g>
	</g>
	<g transform="translate(-62,-126) scale(1,1)">
		<g>
			<path d="M0,0"/>
			<text transform="matrix(1 0 0 1 721.0591 544.0771)" class="st6 st5">CPF</text>
		</g>
	</g>
	<g transform="translate(-62,-126) scale(1,1)">
		<g>
			<path d="M0,0"/>
		</g>
	</g>
	<g transform="translate(-62,-126) scale(1,1)">
		<g>
			<path d="M0,0"/>
		</g>
	</g>
	<g transform="translate(-62,-126) scale(1,1)">
		<rect x="375" y="455" class="st1" width="147.4" height="105"/>
	</g>
	<g transform="translate(-62,-126) scale(1,1)">
		<rect x="368" y="448" class="st2" width="147.4" height="105"/>
	</g>
	<g transform="translate(-62,-126) scale(1,1)">
		<path class="st3" d="M368,448h147.4v105H368V448z"/>
	</g>
	<g transform="translate(-62,-126) scale(1,1)">
		<path class="st3" d="M368,471h147.4"/>
	</g>
	<g transform="translate(-62,-126) scale(1,1)">
		<path class="st3" d="M396.1,471v82"/>
	</g>
	<g transform="translate(-62,-126) scale(1,1)">
		<path class="st3" d="M506.4,471v82"/>
	</g>
	<g transform="translate(-62,-126) scale(1,1)">
		<g>
			<path class="st3" d="M0,0"/>
			<text transform="matrix(1 0 0 1 408.865 463.5386)" class="st4 st5">LOCACAO</text>
		</g>
	</g>
	<g transform="translate(-62,-126) scale(1,1)">
		<g>
			<path d="M0,0"/>
			<text transform="matrix(1 0 0 1 373 484.9438)" class="st6 st5">PK</text>
		</g>
	</g>
	<g transform="translate(-62,-126) scale(1,1)">
		<g>
			<path d="M0,0"/>
			<text transform="matrix(1 0 0 1 401.0591 485.0771)" class="st6 st5">CDLOCACAO</text>
		</g>
	</g>
	<g transform="translate(-62,-126) scale(1,1)">
		<g>
			<path d="M0,0"/>
		</g>
	</g>
	<g transform="translate(-62,-126) scale(1,1)">
		<g>
			<path d="M0,0"/>
		</g>
	</g>
	<g transform="translate(-62,-126) scale(1,1)">
		<g>
			<path d="M0,0"/>
			<text transform="matrix(1 0 0 1 373 499.9438)" class="st6 st5">FK</text>
		</g>
	</g>
	<g transform="translate(-62,-126) scale(1,1)">
		<g>
			<path d="M0,0"/>
			<text transform="matrix(1 0 0 1 401.0591 500.0771)" class="st6 st5">CDFILME</text>
		</g>
	</g>
	<g transform="translate(-62,-126) scale(1,1)">
		<g>
			<path d="M0,0"/>
		</g>
	</g>
	<g transform="translate(-62,-126) scale(1,1)">
		<g>
			<path d="M0,0"/>
		</g>
	</g>
	<g transform="translate(-62,-126) scale(1,1)">
		<g>
			<path d="M0,0"/>
			<text transform="matrix(1 0 0 1 373 514.9438)" class="st6 st5">FK</text>
		</g>
	</g>
	<g transform="translate(-62,-126) scale(1,1)">
		<g>
			<path d="M0,0"/>
			<text transform="matrix(1 0 0 1 401.0591 515.0771)" class="st6 st5">CDCLIENTE</text>
		</g>
	</g>
	<g transform="translate(-62,-126) scale(1,1)">
		<g>
			<path d="M0,0"/>
		</g>
	</g>
	<g transform="translate(-62,-126) scale(1,1)">
		<g>
			<path d="M0,0"/>
		</g>
	</g>
	<g transform="translate(-62,-126) scale(1,1)">
		<g>
			<path d="M0,0"/>
		</g>
	</g>
	<g transform="translate(-62,-126) scale(1,1)">
		<g>
			<path d="M0,0"/>
			<text transform="matrix(1 0 0 1 401.0591 530.0771)" class="st6 st5">DTLOCACAO</text>
		</g>
	</g>
	<g transform="translate(-62,-126) scale(1,1)">
		<g>
			<path d="M0,0"/>
		</g>
	</g>
	<g transform="translate(-62,-126) scale(1,1)">
		<g>
			<path d="M0,0"/>
		</g>
	</g>
	<g transform="translate(-62,-126) scale(1,1)">
		<g>
			<path d="M0,0"/>
		</g>
	</g>
	<g transform="translate(-62,-126) scale(1,1)">
		<g>
			<path d="M0,0"/>
			<text transform="matrix(1 0 0 1 401.0591 545.0771)" class="st6 st5">DTDEVOLUCAO</text>
		</g>
	</g>
	<g transform="translate(-62,-126) scale(1,1)">
		<g>
			<path d="M0,0"/>
		</g>
	</g>
	<g transform="translate(-62,-126) scale(1,1)">
		<g>
			<path d="M0,0"/>
		</g>
	</g>
	<g transform="translate(-62,-126) scale(1,1)">
		<path class="st3" d="M445,334v114"/>
	</g>
	<g transform="translate(-62,-126) scale(1,1)">
		<path class="st3" d="M445,434l-7,14"/>
	</g>
	<g transform="translate(-62,-126) scale(1,1)">
		<path class="st3" d="M445,434l7,14"/>
	</g>
	<g transform="translate(-62,-126) scale(1,1)">
		<path class="st2" d="M438,426c0-3.9,3.1-7,7-7s7,3.1,7,7s-3.1,7-7,7S438,429.9,438,426z"/>
	</g>
	<g transform="translate(-62,-126) scale(1,1)">
		<path class="st3" d="M438,426c0-3.9,3.1-7,7-7s7,3.1,7,7s-3.1,7-7,7S438,429.9,438,426z"/>
	</g>
	<g transform="translate(-62,-126) scale(1,1)">
		<path class="st3" d="M445,348l7-14"/>
	</g>
	<g transform="translate(-62,-126) scale(1,1)">
		<path class="st3" d="M445,348l-7-14"/>
	</g>
	<g transform="translate(-62,-126) scale(1,1)">
		<path class="st2" d="M438,356c0-3.9,3.1-7,7-7s7,3.1,7,7s-3.1,7-7,7S438,359.9,438,356z"/>
	</g>
	<g transform="translate(-62,-126) scale(1,1)">
		<path class="st3" d="M438,356c0-3.9,3.1-7,7-7s7,3.1,7,7s-3.1,7-7,7S438,359.9,438,356z"/>
	</g>
	<g transform="translate(-62,-126) scale(1,1)">
		<g>
			<path class="st3" d="M0,0"/>
		</g>
	</g>
	<g transform="translate(-62,-126) scale(1,1)">
		<g>
			<path class="st3" d="M0,0"/>
		</g>
	</g>
	<g transform="translate(-62,-126) scale(1,1)">
		<path class="st3" d="M515,500h173"/>
	</g>
	<g transform="translate(-62,-126) scale(1,1)">
		<path class="st3" d="M674,500l14,7"/>
	</g>
	<g transform="translate(-62,-126) scale(1,1)">
		<path class="st3" d="M674,500l14-7"/>
	</g>
	<g transform="translate(-62,-126) scale(1,1)">
		<path class="st2" d="M659,500c0-3.9,3.1-7,7-7s7,3.1,7,7s-3.1,7-7,7S659,503.9,659,500z"/>
	</g>
	<g transform="translate(-62,-126) scale(1,1)">
		<path class="st3" d="M659,500c0-3.9,3.1-7,7-7s7,3.1,7,7s-3.1,7-7,7S659,503.9,659,500z"/>
	</g>
	<g transform="translate(-62,-126) scale(1,1)">
		<path class="st3" d="M529,500l-14-7"/>
	</g>
	<g transform="translate(-62,-126) scale(1,1)">
		<path class="st3" d="M529,500l-14,7"/>
	</g>
	<g transform="translate(-62,-126) scale(1,1)">
		<path class="st2" d="M530,500c0-3.9,3.1-7,7-7s7,3.1,7,7s-3.1,7-7,7S530,503.9,530,500z"/>
	</g>
	<g transform="translate(-62,-126) scale(1,1)">
		<path class="st3" d="M530,500c0-3.9,3.1-7,7-7s7,3.1,7,7s-3.1,7-7,7S530,503.9,530,500z"/>
	</g>
	<g transform="translate(-62,-126) scale(1,1)">
		<g>
			<path class="st3" d="M0,0"/>
		</g>
	</g>
	<g transform="translate(-62,-126) scale(1,1)">
		<g>
			<path class="st3" d="M0,0"/>
		</g>
	</g>
	<g transform="translate(-62,-126) scale(1,1)">
		<path class="st3" d="M784,224v-64 M784,160c0-4.4-3.6-8-8-8H624 M624,152c-4.4,0-8,3.6-8,8v96 M616,256c0,4.4-3.6,8-8,8h-81"/>
	</g>
	<g transform="translate(-62,-126) scale(1,1)">
		<path class="st3" d="M541,264l-14-7"/>
	</g>
	<g transform="translate(-62,-126) scale(1,1)">
		<path class="st3" d="M541,264l-14,7"/>
	</g>
	<g transform="translate(-62,-126) scale(1,1)">
		<path class="st2" d="M542,264c0-3.9,3.1-7,7-7s7,3.1,7,7s-3.1,7-7,7S542,267.9,542,264z"/>
	</g>
	<g transform="translate(-62,-126) scale(1,1)">
		<path class="st3" d="M542,264c0-3.9,3.1-7,7-7s7,3.1,7,7s-3.1,7-7,7S542,267.9,542,264z"/>
	</g>
	<g transform="translate(-62,-126) scale(1,1)">
		<path class="st3" d="M777,217h14"/>
	</g>
	<g transform="translate(-62,-126) scale(1,1)">
		<path class="st3" d="M777,210h14"/>
	</g>
	<g transform="translate(-62,-126) scale(1,1)">
		<g>
			<path class="st3" d="M0,0"/>
		</g>
	</g>
	<g transform="translate(-62,-126) scale(1,1)">
		<g>
			<path class="st3" d="M0,0"/>
		</g>
	</g>
	<g transform="translate(-62,-126) scale(1,1)">
		<path class="st3" d="M137,224v-80 M137,144c0-4.4,3.6-8,8-8h119 M264,136c4.4,0,8,3.6,8,8v104 M272,248c0,4.4,3.6,8,8,8h104"/>
	</g>
	<g transform="translate(-62,-126) scale(1,1)">
		<path class="st3" d="M370,256l14,7"/>
	</g>
	<g transform="translate(-62,-126) scale(1,1)">
		<path class="st3" d="M370,256l14-7"/>
	</g>
	<g transform="translate(-62,-126) scale(1,1)">
		<path class="st2" d="M355,256c0-3.9,3.1-7,7-7s7,3.1,7,7s-3.1,7-7,7S355,259.9,355,256z"/>
	</g>
	<g transform="translate(-62,-126) scale(1,1)">
		<path class="st3" d="M355,256c0-3.9,3.1-7,7-7s7,3.1,7,7s-3.1,7-7,7S355,259.9,355,256z"/>
	</g>
	<g transform="translate(-62,-126) scale(1,1)">
		<path class="st3" d="M130,217h14"/>
	</g>
	<g transform="translate(-62,-126) scale(1,1)">
		<path class="st3" d="M130,210h14"/>
	</g>
	<g transform="translate(-62,-126) scale(1,1)">
		<g>
			<path class="st3" d="M0,0"/>
		</g>
	</g>
	<g transform="translate(-62,-126) scale(1,1)">
		<g>
			<path class="st3" d="M0,0"/>
		</g>
	</g>
</g>
</svg>
