<?xml version="1.0" encoding="utf-8"?>
<!-- Generator: Adobe Illustrator 26.0.2, SVG Export Plug-In . SVG Version: 6.00 Build 0)  -->
<svg version="1.1" id="Camada_1" xmlns="http://www.w3.org/2000/svg" xmlns:xlink="http://www.w3.org/1999/xlink" x="0px" y="0px"
	 viewBox="0 0 556.8 340" style="enable-background:new 0 0 556.8 340;" xml:space="preserve">
<style type="text/css">
	.st0{opacity:0.2;fill:#C0C0C0;enable-background:new    ;}
	.st1{fill:#FFFFFF;}
	.st2{fill:none;stroke:#000000;stroke-miterlimit:10;}
	.st3{font-family:'Arial-BoldMT';}
	.st4{font-size:13px;}
	.st5{font-family:'ArialMT';}
</style>
<g>
	<g transform="translate(-214,-550) scale(1,1)">
		<rect x="231" y="567" class="st0" width="105.6" height="60"/>
	</g>
	<g transform="translate(-214,-550) scale(1,1)">
		<rect x="224" y="560" class="st1" width="105.6" height="60"/>
	</g>
	<g transform="translate(-214,-550) scale(1,1)">
		<path class="st2" d="M224,560h105.6v60H224V560z"/>
	</g>
	<g transform="translate(-214,-550) scale(1,1)">
		<path class="st2" d="M224,583h105.6"/>
	</g>
	<g transform="translate(-214,-550) scale(1,1)">
		<path class="st2" d="M234,583v37"/>
	</g>
	<g transform="translate(-214,-550) scale(1,1)">
		<path class="st2" d="M320.6,583v37"/>
	</g>
	<g transform="translate(-214,-550) scale(1,1)">
		<g>
			<path class="st2" d="M0,0"/>
			<text transform="matrix(1 0 0 1 248.6086 575.5386)" class="st3 st4">GENERO</text>
		</g>
	</g>
	<g transform="translate(-214,-550) scale(1,1)">
		<g>
			<path d="M0,0"/>
		</g>
	</g>
	<g transform="translate(-214,-550) scale(1,1)">
		<g>
			<path d="M0,0"/>
			<text transform="matrix(1 0 0 1 239 597.0771)" class="st5 st4">CDGENERO</text>
		</g>
	</g>
	<g transform="translate(-214,-550) scale(1,1)">
		<g>
			<path d="M0,0"/>
		</g>
	</g>
	<g transform="translate(-214,-550) scale(1,1)">
		<g>
			<path d="M0,0"/>
		</g>
	</g>
	<g transform="translate(-214,-550) scale(1,1)">
		<g>
			<path d="M0,0"/>
		</g>
	</g>
	<g transform="translate(-214,-550) scale(1,1)">
		<g>
			<path d="M0,0"/>
			<text transform="matrix(1 0 0 1 239 612.0771)" class="st5 st4">NMGENERO</text>
		</g>
	</g>
	<g transform="translate(-214,-550) scale(1,1)">
		<g>
			<path d="M0,0"/>
		</g>
	</g>
	<g transform="translate(-214,-550) scale(1,1)">
		<g>
			<path d="M0,0"/>
		</g>
	</g>
	<g transform="translate(-214,-550) scale(1,1)">
		<rect x="423" y="567" class="st0" width="101.9" height="120"/>
	</g>
	<g transform="translate(-214,-550) scale(1,1)">
		<rect x="416" y="560" class="st1" width="101.9" height="120"/>
	</g>
	<g transform="translate(-214,-550) scale(1,1)">
		<path class="st2" d="M416,560h101.9v120H416V560z"/>
	</g>
	<g transform="translate(-214,-550) scale(1,1)">
		<path class="st2" d="M416,583h101.9"/>
	</g>
	<g transform="translate(-214,-550) scale(1,1)">
		<path class="st2" d="M426,583v97"/>
	</g>
	<g transform="translate(-214,-550) scale(1,1)">
		<path class="st2" d="M508.9,583v97"/>
	</g>
	<g transform="translate(-214,-550) scale(1,1)">
		<g>
			<path class="st2" d="M0,0"/>
			<text transform="matrix(1 0 0 1 447.4736 575.4719)" class="st3 st4">FILME</text>
		</g>
	</g>
	<g transform="translate(-214,-550) scale(1,1)">
		<g>
			<path d="M0,0"/>
		</g>
	</g>
	<g transform="translate(-214,-550) scale(1,1)">
		<g>
			<path d="M0,0"/>
			<text transform="matrix(1 0 0 1 431 597.0771)" class="st5 st4">CDFILME</text>
		</g>
	</g>
	<g transform="translate(-214,-550) scale(1,1)">
		<g>
			<path d="M0,0"/>
		</g>
	</g>
	<g transform="translate(-214,-550) scale(1,1)">
		<g>
			<path d="M0,0"/>
		</g>
	</g>
	<g transform="translate(-214,-550) scale(1,1)">
		<g>
			<path d="M0,0"/>
		</g>
	</g>
	<g transform="translate(-214,-550) scale(1,1)">
		<g>
			<path d="M0,0"/>
			<text transform="matrix(1 0 0 1 431 611.9438)" class="st5 st4">NMFILME</text>
		</g>
	</g>
	<g transform="translate(-214,-550) scale(1,1)">
		<g>
			<path d="M0,0"/>
		</g>
	</g>
	<g transform="translate(-214,-550) scale(1,1)">
		<g>
			<path d="M0,0"/>
		</g>
	</g>
	<g transform="translate(-214,-550) scale(1,1)">
		<g>
			<path d="M0,0"/>
		</g>
	</g>
	<g transform="translate(-214,-550) scale(1,1)">
		<g>
			<path d="M0,0"/>
			<text transform="matrix(1 0 0 1 431 627.0771)" class="st5 st4">DURACAO</text>
		</g>
	</g>
	<g transform="translate(-214,-550) scale(1,1)">
		<g>
			<path d="M0,0"/>
		</g>
	</g>
	<g transform="translate(-214,-550) scale(1,1)">
		<g>
			<path d="M0,0"/>
		</g>
	</g>
	<g transform="translate(-214,-550) scale(1,1)">
		<g>
			<path d="M0,0"/>
		</g>
	</g>
	<g transform="translate(-214,-550) scale(1,1)">
		<g>
			<path d="M0,0"/>
			<text transform="matrix(1 0 0 1 431 642.0771)" class="st5 st4">SINOPSE</text>
		</g>
	</g>
	<g transform="translate(-214,-550) scale(1,1)">
		<g>
			<path d="M0,0"/>
		</g>
	</g>
	<g transform="translate(-214,-550) scale(1,1)">
		<g>
			<path d="M0,0"/>
		</g>
	</g>
	<g transform="translate(-214,-550) scale(1,1)">
		<g>
			<path d="M0,0"/>
		</g>
	</g>
	<g transform="translate(-214,-550) scale(1,1)">
		<g>
			<path d="M0,0"/>
			<text transform="matrix(1 0 0 1 431 657.0771)" class="st5 st4">FOTO</text>
		</g>
	</g>
	<g transform="translate(-214,-550) scale(1,1)">
		<g>
			<path d="M0,0"/>
		</g>
	</g>
	<g transform="translate(-214,-550) scale(1,1)">
		<g>
			<path d="M0,0"/>
		</g>
	</g>
	<g transform="translate(-214,-550) scale(1,1)">
		<g>
			<path d="M0,0"/>
		</g>
	</g>
	<g transform="translate(-214,-550) scale(1,1)">
		<g>
			<path d="M0,0"/>
			<text transform="matrix(1 0 0 1 431 672.0771)" class="st5 st4">STLOCADO</text>
		</g>
	</g>
	<g transform="translate(-214,-550) scale(1,1)">
		<g>
			<path d="M0,0"/>
		</g>
	</g>
	<g transform="translate(-214,-550) scale(1,1)">
		<g>
			<path d="M0,0"/>
		</g>
	</g>
	<g transform="translate(-214,-550) scale(1,1)">
		<rect x="615" y="575" class="st0" width="126.3" height="75"/>
	</g>
	<g transform="translate(-214,-550) scale(1,1)">
		<rect x="608" y="568" class="st1" width="126.3" height="75"/>
	</g>
	<g transform="translate(-214,-550) scale(1,1)">
		<path class="st2" d="M608,568h126.3v75H608V568z"/>
	</g>
	<g transform="translate(-214,-550) scale(1,1)">
		<path class="st2" d="M608,591h126.3"/>
	</g>
	<g transform="translate(-214,-550) scale(1,1)">
		<path class="st2" d="M618,591v52"/>
	</g>
	<g transform="translate(-214,-550) scale(1,1)">
		<path class="st2" d="M725.3,591v52"/>
	</g>
	<g transform="translate(-214,-550) scale(1,1)">
		<g>
			<path class="st2" d="M0,0"/>
			<text transform="matrix(1 0 0 1 632.6086 583.5386)" class="st3 st4">CATEGORIA</text>
		</g>
	</g>
	<g transform="translate(-214,-550) scale(1,1)">
		<g>
			<path d="M0,0"/>
		</g>
	</g>
	<g transform="translate(-214,-550) scale(1,1)">
		<g>
			<path d="M0,0"/>
			<text transform="matrix(1 0 0 1 623 605.0771)" class="st5 st4">CDCATEGORIA</text>
		</g>
	</g>
	<g transform="translate(-214,-550) scale(1,1)">
		<g>
			<path d="M0,0"/>
		</g>
	</g>
	<g transform="translate(-214,-550) scale(1,1)">
		<g>
			<path d="M0,0"/>
		</g>
	</g>
	<g transform="translate(-214,-550) scale(1,1)">
		<g>
			<path d="M0,0"/>
		</g>
	</g>
	<g transform="translate(-214,-550) scale(1,1)">
		<g>
			<path d="M0,0"/>
			<text transform="matrix(1 0 0 1 623 620.0771)" class="st5 st4">NMCATEGORIA</text>
		</g>
	</g>
	<g transform="translate(-214,-550) scale(1,1)">
		<g>
			<path d="M0,0"/>
		</g>
	</g>
	<g transform="translate(-214,-550) scale(1,1)">
		<g>
			<path d="M0,0"/>
		</g>
	</g>
	<g transform="translate(-214,-550) scale(1,1)">
		<g>
			<path d="M0,0"/>
		</g>
	</g>
	<g transform="translate(-214,-550) scale(1,1)">
		<g>
			<path d="M0,0"/>
			<text transform="matrix(1 0 0 1 623 634.9438)" class="st5 st4">VLDIARIA</text>
		</g>
	</g>
	<g transform="translate(-214,-550) scale(1,1)">
		<g>
			<path d="M0,0"/>
		</g>
	</g>
	<g transform="translate(-214,-550) scale(1,1)">
		<g>
			<path d="M0,0"/>
		</g>
	</g>
	<g transform="translate(-214,-550) scale(1,1)">
		<rect x="279" y="767" class="st0" width="129.4" height="75"/>
	</g>
	<g transform="translate(-214,-550) scale(1,1)">
		<rect x="272" y="760" class="st1" width="129.4" height="75"/>
	</g>
	<g transform="translate(-214,-550) scale(1,1)">
		<path class="st2" d="M272,760h129.4v75H272V760z"/>
	</g>
	<g transform="translate(-214,-550) scale(1,1)">
		<path class="st2" d="M272,783h129.4"/>
	</g>
	<g transform="translate(-214,-550) scale(1,1)">
		<path class="st2" d="M282,783v52"/>
	</g>
	<g transform="translate(-214,-550) scale(1,1)">
		<path class="st2" d="M392.4,783v52"/>
	</g>
	<g transform="translate(-214,-550) scale(1,1)">
		<g>
			<path class="st2" d="M0,0"/>
			<text transform="matrix(1 0 0 1 303.8354 775.5386)" class="st3 st4">LOCACAO</text>
		</g>
	</g>
	<g transform="translate(-214,-550) scale(1,1)">
		<g>
			<path d="M0,0"/>
		</g>
	</g>
	<g transform="translate(-214,-550) scale(1,1)">
		<g>
			<path d="M0,0"/>
			<text transform="matrix(1 0 0 1 287 797.0771)" class="st5 st4">CDLOCACAO</text>
		</g>
	</g>
	<g transform="translate(-214,-550) scale(1,1)">
		<g>
			<path d="M0,0"/>
		</g>
	</g>
	<g transform="translate(-214,-550) scale(1,1)">
		<g>
			<path d="M0,0"/>
		</g>
	</g>
	<g transform="translate(-214,-550) scale(1,1)">
		<g>
			<path d="M0,0"/>
		</g>
	</g>
	<g transform="translate(-214,-550) scale(1,1)">
		<g>
			<path d="M0,0"/>
			<text transform="matrix(1 0 0 1 287 812.0771)" class="st5 st4">DTLOCACAO</text>
		</g>
	</g>
	<g transform="translate(-214,-550) scale(1,1)">
		<g>
			<path d="M0,0"/>
		</g>
	</g>
	<g transform="translate(-214,-550) scale(1,1)">
		<g>
			<path d="M0,0"/>
		</g>
	</g>
	<g transform="translate(-214,-550) scale(1,1)">
		<g>
			<path d="M0,0"/>
		</g>
	</g>
	<g transform="translate(-214,-550) scale(1,1)">
		<g>
			<path d="M0,0"/>
			<text transform="matrix(1 0 0 1 287 827.0771)" class="st5 st4">DTDEVOLUCAO</text>
		</g>
	</g>
	<g transform="translate(-214,-550) scale(1,1)">
		<g>
			<path d="M0,0"/>
		</g>
	</g>
	<g transform="translate(-214,-550) scale(1,1)">
		<g>
			<path d="M0,0"/>
		</g>
	</g>
	<g transform="translate(-214,-550) scale(1,1)">
		<rect x="663" y="767" class="st0" width="104.8" height="120"/>
	</g>
	<g transform="translate(-214,-550) scale(1,1)">
		<rect x="656" y="760" class="st1" width="104.8" height="120"/>
	</g>
	<g transform="translate(-214,-550) scale(1,1)">
		<path class="st2" d="M656,760h104.8v120H656V760z"/>
	</g>
	<g transform="translate(-214,-550) scale(1,1)">
		<path class="st2" d="M656,783h104.8"/>
	</g>
	<g transform="translate(-214,-550) scale(1,1)">
		<path class="st2" d="M666,783v97"/>
	</g>
	<g transform="translate(-214,-550) scale(1,1)">
		<path class="st2" d="M751.8,783v97"/>
	</g>
	<g transform="translate(-214,-550) scale(1,1)">
		<g>
			<path class="st2" d="M0,0"/>
			<text transform="matrix(1 0 0 1 680.6086 775.5386)" class="st3 st4">CLIENTE</text>
		</g>
	</g>
	<g transform="translate(-214,-550) scale(1,1)">
		<g>
			<path d="M0,0"/>
		</g>
	</g>
	<g transform="translate(-214,-550) scale(1,1)">
		<g>
			<path d="M0,0"/>
			<text transform="matrix(1 0 0 1 671 797.0771)" class="st5 st4">CDCLIENTE</text>
		</g>
	</g>
	<g transform="translate(-214,-550) scale(1,1)">
		<g>
			<path d="M0,0"/>
		</g>
	</g>
	<g transform="translate(-214,-550) scale(1,1)">
		<g>
			<path d="M0,0"/>
		</g>
	</g>
	<g transform="translate(-214,-550) scale(1,1)">
		<g>
			<path d="M0,0"/>
		</g>
	</g>
	<g transform="translate(-214,-550) scale(1,1)">
		<g>
			<path d="M0,0"/>
			<text transform="matrix(1 0 0 1 671 812.0771)" class="st5 st4">NMCLIENTE</text>
		</g>
	</g>
	<g transform="translate(-214,-550) scale(1,1)">
		<g>
			<path d="M0,0"/>
		</g>
	</g>
	<g transform="translate(-214,-550) scale(1,1)">
		<g>
			<path d="M0,0"/>
		</g>
	</g>
	<g transform="translate(-214,-550) scale(1,1)">
		<g>
			<path d="M0,0"/>
		</g>
	</g>
	<g transform="translate(-214,-550) scale(1,1)">
		<g>
			<path d="M0,0"/>
			<text transform="matrix(1 0 0 1 671 827.0771)" class="st5 st4">ENDERECO</text>
		</g>
	</g>
	<g transform="translate(-214,-550) scale(1,1)">
		<g>
			<path d="M0,0"/>
		</g>
	</g>
	<g transform="translate(-214,-550) scale(1,1)">
		<g>
			<path d="M0,0"/>
		</g>
	</g>
	<g transform="translate(-214,-550) scale(1,1)">
		<g>
			<path d="M0,0"/>
		</g>
	</g>
	<g transform="translate(-214,-550) scale(1,1)">
		<g>
			<path d="M0,0"/>
			<text transform="matrix(1 0 0 1 671 842.0771)" class="st5 st4">TELEFONE</text>
		</g>
	</g>
	<g transform="translate(-214,-550) scale(1,1)">
		<g>
			<path d="M0,0"/>
		</g>
	</g>
	<g transform="translate(-214,-550) scale(1,1)">
		<g>
			<path d="M0,0"/>
		</g>
	</g>
	<g transform="translate(-214,-550) scale(1,1)">
		<g>
			<path d="M0,0"/>
		</g>
	</g>
	<g transform="translate(-214,-550) scale(1,1)">
		<g>
			<path d="M0,0"/>
			<text transform="matrix(1 0 0 1 671 857.0771)" class="st5 st4">RG</text>
		</g>
	</g>
	<g transform="translate(-214,-550) scale(1,1)">
		<g>
			<path d="M0,0"/>
		</g>
	</g>
	<g transform="translate(-214,-550) scale(1,1)">
		<g>
			<path d="M0,0"/>
		</g>
	</g>
	<g transform="translate(-214,-550) scale(1,1)">
		<g>
			<path d="M0,0"/>
		</g>
	</g>
	<g transform="translate(-214,-550) scale(1,1)">
		<g>
			<path d="M0,0"/>
			<text transform="matrix(1 0 0 1 671 872.0771)" class="st5 st4">CPF</text>
		</g>
	</g>
	<g transform="translate(-214,-550) scale(1,1)">
		<g>
			<path d="M0,0"/>
		</g>
	</g>
	<g transform="translate(-214,-550) scale(1,1)">
		<g>
			<path d="M0,0"/>
		</g>
	</g>
</g>
</svg>
