<?xml version="1.0" encoding="utf-8"?>
<!-- Generator: Adobe Illustrator 26.0.2, SVG Export Plug-In . SVG Version: 6.00 Build 0)  -->
<svg version="1.1" id="Camada_1" xmlns="http://www.w3.org/2000/svg" xmlns:xlink="http://www.w3.org/1999/xlink" x="0px" y="0px"
	 viewBox="0 0 788.5 473" style="enable-background:new 0 0 788.5 473;" xml:space="preserve">
<style type="text/css">
	.st0{opacity:0.2;fill:#C0C0C0;enable-background:new    ;}
	.st1{fill:#FFFFFF;}
	.st2{fill:none;stroke:#000000;stroke-miterlimit:10;}
	.st3{font-family:'Arial-BoldMT';}
	.st4{font-size:13px;}
	.st5{font-family:'ArialMT';}
</style>
<g>
	<g transform="translate(-38,-70) scale(1,1)">
		<rect x="63" y="87" class="st0" width="153.9" height="165"/>
	</g>
	<g transform="translate(-38,-70) scale(1,1)">
		<rect x="56" y="80" class="st1" width="153.9" height="165"/>
	</g>
	<g transform="translate(-38,-70) scale(1,1)">
		<path class="st2" d="M56,80h153.9v165H56V80z"/>
	</g>
	<g transform="translate(-38,-70) scale(1,1)">
		<path class="st2" d="M56,103h153.9"/>
	</g>
	<g transform="translate(-38,-70) scale(1,1)">
		<path class="st2" d="M84.1,103v142"/>
	</g>
	<g transform="translate(-38,-70) scale(1,1)">
		<path class="st2" d="M188,103v142"/>
	</g>
	<g transform="translate(-38,-70) scale(1,1)">
		<g>
			<path class="st2" d="M0,0"/>
			<text transform="matrix(1 0 0 1 96.1318 95.5386)" class="st3 st4">VENDEDOR</text>
		</g>
	</g>
	<g transform="translate(-38,-70) scale(1,1)">
		<g>
			<path d="M0,0"/>
			<text transform="matrix(1 0 0 1 61 116.9438)" class="st5 st4">PK</text>
		</g>
	</g>
	<g transform="translate(-38,-70) scale(1,1)">
		<g>
			<path d="M0,0"/>
			<text transform="matrix(1 0 0 1 89.0591 117.0771)" class="st5 st4">CDVENDEDOR</text>
		</g>
	</g>
	<g transform="translate(-38,-70) scale(1,1)">
		<g>
			<path d="M0,0"/>
		</g>
	</g>
	<g transform="translate(-38,-70) scale(1,1)">
		<g>
			<path d="M0,0"/>
		</g>
	</g>
	<g transform="translate(-38,-70) scale(1,1)">
		<g>
			<path d="M0,0"/>
		</g>
	</g>
	<g transform="translate(-38,-70) scale(1,1)">
		<g>
			<path d="M0,0"/>
			<text transform="matrix(1 0 0 1 89.0591 132.0771)" class="st5 st4">NMVENDEDOR</text>
		</g>
	</g>
	<g transform="translate(-38,-70) scale(1,1)">
		<g>
			<path d="M0,0"/>
		</g>
	</g>
	<g transform="translate(-38,-70) scale(1,1)">
		<g>
			<path d="M0,0"/>
		</g>
	</g>
	<g transform="translate(-38,-70) scale(1,1)">
		<g>
			<path d="M0,0"/>
		</g>
	</g>
	<g transform="translate(-38,-70) scale(1,1)">
		<g>
			<path d="M0,0"/>
			<text transform="matrix(1 0 0 1 89.0591 147.0771)" class="st5 st4">NMENDERECO</text>
		</g>
	</g>
	<g transform="translate(-38,-70) scale(1,1)">
		<g>
			<path d="M0,0"/>
		</g>
	</g>
	<g transform="translate(-38,-70) scale(1,1)">
		<g>
			<path d="M0,0"/>
		</g>
	</g>
	<g transform="translate(-38,-70) scale(1,1)">
		<g>
			<path d="M0,0"/>
		</g>
	</g>
	<g transform="translate(-38,-70) scale(1,1)">
		<g>
			<path d="M0,0"/>
			<text transform="matrix(1 0 0 1 89.0591 162.0771)" class="st5 st4">NRCPF</text>
		</g>
	</g>
	<g transform="translate(-38,-70) scale(1,1)">
		<g>
			<path d="M0,0"/>
		</g>
	</g>
	<g transform="translate(-38,-70) scale(1,1)">
		<g>
			<path d="M0,0"/>
		</g>
	</g>
	<g transform="translate(-38,-70) scale(1,1)">
		<g>
			<path d="M0,0"/>
		</g>
	</g>
	<g transform="translate(-38,-70) scale(1,1)">
		<g>
			<path d="M0,0"/>
			<text transform="matrix(1 0 0 1 89.0591 177.0771)" class="st5 st4">NMCIDADE</text>
		</g>
	</g>
	<g transform="translate(-38,-70) scale(1,1)">
		<g>
			<path d="M0,0"/>
		</g>
	</g>
	<g transform="translate(-38,-70) scale(1,1)">
		<g>
			<path d="M0,0"/>
		</g>
	</g>
	<g transform="translate(-38,-70) scale(1,1)">
		<g>
			<path d="M0,0"/>
		</g>
	</g>
	<g transform="translate(-38,-70) scale(1,1)">
		<g>
			<path d="M0,0"/>
			<text transform="matrix(1 0 0 1 89.0591 192.0771)" class="st5 st4">NMBAIRRO</text>
		</g>
	</g>
	<g transform="translate(-38,-70) scale(1,1)">
		<g>
			<path d="M0,0"/>
		</g>
	</g>
	<g transform="translate(-38,-70) scale(1,1)">
		<g>
			<path d="M0,0"/>
		</g>
	</g>
	<g transform="translate(-38,-70) scale(1,1)">
		<g>
			<path d="M0,0"/>
		</g>
	</g>
	<g transform="translate(-38,-70) scale(1,1)">
		<g>
			<path d="M0,0"/>
			<text transform="matrix(1 0 0 1 89.0591 207.0771)" class="st5 st4">SGESTADO</text>
		</g>
	</g>
	<g transform="translate(-38,-70) scale(1,1)">
		<g>
			<path d="M0,0"/>
		</g>
	</g>
	<g transform="translate(-38,-70) scale(1,1)">
		<g>
			<path d="M0,0"/>
		</g>
	</g>
	<g transform="translate(-38,-70) scale(1,1)">
		<g>
			<path d="M0,0"/>
		</g>
	</g>
	<g transform="translate(-38,-70) scale(1,1)">
		<g>
			<path d="M0,0"/>
			<text transform="matrix(1 0 0 1 89.0591 222.0771)" class="st5 st4">TELEFONE</text>
		</g>
	</g>
	<g transform="translate(-38,-70) scale(1,1)">
		<g>
			<path d="M0,0"/>
		</g>
	</g>
	<g transform="translate(-38,-70) scale(1,1)">
		<g>
			<path d="M0,0"/>
		</g>
	</g>
	<g transform="translate(-38,-70) scale(1,1)">
		<g>
			<path d="M0,0"/>
		</g>
	</g>
	<g transform="translate(-38,-70) scale(1,1)">
		<g>
			<path d="M0,0"/>
			<text transform="matrix(1 0 0 1 89.0591 236.9438)" class="st5 st4">EMAIL</text>
		</g>
	</g>
	<g transform="translate(-38,-70) scale(1,1)">
		<g>
			<path d="M0,0"/>
		</g>
	</g>
	<g transform="translate(-38,-70) scale(1,1)">
		<g>
			<path d="M0,0"/>
		</g>
	</g>
	<g transform="translate(-38,-70) scale(1,1)">
		<rect x="399" y="87" class="st0" width="143.8" height="165"/>
	</g>
	<g transform="translate(-38,-70) scale(1,1)">
		<rect x="392" y="80" class="st1" width="143.8" height="165"/>
	</g>
	<g transform="translate(-38,-70) scale(1,1)">
		<path class="st2" d="M392,80h143.8v165H392V80z"/>
	</g>
	<g transform="translate(-38,-70) scale(1,1)">
		<path class="st2" d="M392,103h143.8"/>
	</g>
	<g transform="translate(-38,-70) scale(1,1)">
		<path class="st2" d="M420.1,103v142"/>
	</g>
	<g transform="translate(-38,-70) scale(1,1)">
		<path class="st2" d="M526.8,103v142"/>
	</g>
	<g transform="translate(-38,-70) scale(1,1)">
		<g>
			<path class="st2" d="M0,0"/>
			<text transform="matrix(1 0 0 1 438.9968 95.5386)" class="st3 st4">IMOVEL</text>
		</g>
	</g>
	<g transform="translate(-38,-70) scale(1,1)">
		<g>
			<path d="M0,0"/>
			<text transform="matrix(1 0 0 1 397 116.9438)" class="st5 st4">PK</text>
		</g>
	</g>
	<g transform="translate(-38,-70) scale(1,1)">
		<g>
			<path d="M0,0"/>
			<text transform="matrix(1 0 0 1 425.0591 117.0771)" class="st5 st4">CDIMOVEL</text>
		</g>
	</g>
	<g transform="translate(-38,-70) scale(1,1)">
		<g>
			<path d="M0,0"/>
		</g>
	</g>
	<g transform="translate(-38,-70) scale(1,1)">
		<g>
			<path d="M0,0"/>
		</g>
	</g>
	<g transform="translate(-38,-70) scale(1,1)">
		<g>
			<path d="M0,0"/>
		</g>
	</g>
	<g transform="translate(-38,-70) scale(1,1)">
		<g>
			<path d="M0,0"/>
			<text transform="matrix(1 0 0 1 425.0591 132.0771)" class="st5 st4">NMENDERECO</text>
		</g>
	</g>
	<g transform="translate(-38,-70) scale(1,1)">
		<g>
			<path d="M0,0"/>
		</g>
	</g>
	<g transform="translate(-38,-70) scale(1,1)">
		<g>
			<path d="M0,0"/>
		</g>
	</g>
	<g transform="translate(-38,-70) scale(1,1)">
		<g>
			<path d="M0,0"/>
		</g>
	</g>
	<g transform="translate(-38,-70) scale(1,1)">
		<g>
			<path d="M0,0"/>
			<text transform="matrix(1 0 0 1 425.0591 146.9438)" class="st5 st4">NRAREAUTIL</text>
		</g>
	</g>
	<g transform="translate(-38,-70) scale(1,1)">
		<g>
			<path d="M0,0"/>
		</g>
	</g>
	<g transform="translate(-38,-70) scale(1,1)">
		<g>
			<path d="M0,0"/>
		</g>
	</g>
	<g transform="translate(-38,-70) scale(1,1)">
		<g>
			<path d="M0,0"/>
		</g>
	</g>
	<g transform="translate(-38,-70) scale(1,1)">
		<g>
			<path d="M0,0"/>
			<text transform="matrix(1 0 0 1 425.0591 162.0771)" class="st5 st4">NRAREATOTAL</text>
		</g>
	</g>
	<g transform="translate(-38,-70) scale(1,1)">
		<g>
			<path d="M0,0"/>
		</g>
	</g>
	<g transform="translate(-38,-70) scale(1,1)">
		<g>
			<path d="M0,0"/>
		</g>
	</g>
	<g transform="translate(-38,-70) scale(1,1)">
		<g>
			<path d="M0,0"/>
		</g>
	</g>
	<g transform="translate(-38,-70) scale(1,1)">
		<g>
			<path d="M0,0"/>
			<text transform="matrix(1 0 0 1 425.0591 177.0771)" class="st5 st4">DSIMOVEL</text>
		</g>
	</g>
	<g transform="translate(-38,-70) scale(1,1)">
		<g>
			<path d="M0,0"/>
		</g>
	</g>
	<g transform="translate(-38,-70) scale(1,1)">
		<g>
			<path d="M0,0"/>
		</g>
	</g>
	<g transform="translate(-38,-70) scale(1,1)">
		<g>
			<path d="M0,0"/>
		</g>
	</g>
	<g transform="translate(-38,-70) scale(1,1)">
		<g>
			<path d="M0,0"/>
			<text transform="matrix(1 0 0 1 425.0591 192.0771)" class="st5 st4">VLPRECO</text>
		</g>
	</g>
	<g transform="translate(-38,-70) scale(1,1)">
		<g>
			<path d="M0,0"/>
		</g>
	</g>
	<g transform="translate(-38,-70) scale(1,1)">
		<g>
			<path d="M0,0"/>
		</g>
	</g>
	<g transform="translate(-38,-70) scale(1,1)">
		<g>
			<path d="M0,0"/>
		</g>
	</g>
	<g transform="translate(-38,-70) scale(1,1)">
		<g>
			<path d="M0,0"/>
			<text transform="matrix(1 0 0 1 425.0591 207.0771)" class="st5 st4">NROFERTAS</text>
		</g>
	</g>
	<g transform="translate(-38,-70) scale(1,1)">
		<g>
			<path d="M0,0"/>
		</g>
	</g>
	<g transform="translate(-38,-70) scale(1,1)">
		<g>
			<path d="M0,0"/>
		</g>
	</g>
	<g transform="translate(-38,-70) scale(1,1)">
		<g>
			<path d="M0,0"/>
		</g>
	</g>
	<g transform="translate(-38,-70) scale(1,1)">
		<g>
			<path d="M0,0"/>
			<text transform="matrix(1 0 0 1 425.0591 222.0771)" class="st5 st4">STVENDIDO</text>
		</g>
	</g>
	<g transform="translate(-38,-70) scale(1,1)">
		<g>
			<path d="M0,0"/>
		</g>
	</g>
	<g transform="translate(-38,-70) scale(1,1)">
		<g>
			<path d="M0,0"/>
		</g>
	</g>
	<g transform="translate(-38,-70) scale(1,1)">
		<g>
			<path d="M0,0"/>
		</g>
	</g>
	<g transform="translate(-38,-70) scale(1,1)">
		<g>
			<path d="M0,0"/>
			<text transform="matrix(1 0 0 1 425.0591 237.0771)" class="st5 st4">DTLANCTO</text>
		</g>
	</g>
	<g transform="translate(-38,-70) scale(1,1)">
		<g>
			<path d="M0,0"/>
		</g>
	</g>
	<g transform="translate(-38,-70) scale(1,1)">
		<g>
			<path d="M0,0"/>
		</g>
	</g>
	<g transform="translate(-38,-70) scale(1,1)">
		<rect x="703" y="87" class="st0" width="120.5" height="60"/>
	</g>
	<g transform="translate(-38,-70) scale(1,1)">
		<rect x="696" y="80" class="st1" width="120.5" height="60"/>
	</g>
	<g transform="translate(-38,-70) scale(1,1)">
		<path class="st2" d="M696,80h120.5v60H696V80z"/>
	</g>
	<g transform="translate(-38,-70) scale(1,1)">
		<path class="st2" d="M696,103h120.5"/>
	</g>
	<g transform="translate(-38,-70) scale(1,1)">
		<path class="st2" d="M724.1,103v37"/>
	</g>
	<g transform="translate(-38,-70) scale(1,1)">
		<path class="st2" d="M807.5,103v37"/>
	</g>
	<g transform="translate(-38,-70) scale(1,1)">
		<g>
			<path class="st2" d="M0,0"/>
			<text transform="matrix(1 0 0 1 729.6382 95.5386)" class="st3 st4">ESTADO</text>
		</g>
	</g>
	<g transform="translate(-38,-70) scale(1,1)">
		<g>
			<path d="M0,0"/>
			<text transform="matrix(1 0 0 1 701 116.9438)" class="st5 st4">PK</text>
		</g>
	</g>
	<g transform="translate(-38,-70) scale(1,1)">
		<g>
			<path d="M0,0"/>
			<text transform="matrix(1 0 0 1 729.0591 117.0771)" class="st5 st4">SGESTADO</text>
		</g>
	</g>
	<g transform="translate(-38,-70) scale(1,1)">
		<g>
			<path d="M0,0"/>
		</g>
	</g>
	<g transform="translate(-38,-70) scale(1,1)">
		<g>
			<path d="M0,0"/>
		</g>
	</g>
	<g transform="translate(-38,-70) scale(1,1)">
		<g>
			<path d="M0,0"/>
		</g>
	</g>
	<g transform="translate(-38,-70) scale(1,1)">
		<g>
			<path d="M0,0"/>
			<text transform="matrix(1 0 0 1 729.0591 132.0771)" class="st5 st4">NMESTADO</text>
		</g>
	</g>
	<g transform="translate(-38,-70) scale(1,1)">
		<g>
			<path d="M0,0"/>
		</g>
	</g>
	<g transform="translate(-38,-70) scale(1,1)">
		<g>
			<path d="M0,0"/>
		</g>
	</g>
	<g transform="translate(-38,-70) scale(1,1)">
		<rect x="703" y="199" class="st0" width="117.1" height="60"/>
	</g>
	<g transform="translate(-38,-70) scale(1,1)">
		<rect x="696" y="192" class="st1" width="117.1" height="60"/>
	</g>
	<g transform="translate(-38,-70) scale(1,1)">
		<path class="st2" d="M696,192h117.1v60H696V192z"/>
	</g>
	<g transform="translate(-38,-70) scale(1,1)">
		<path class="st2" d="M696,215h117.1"/>
	</g>
	<g transform="translate(-38,-70) scale(1,1)">
		<path class="st2" d="M724.1,215v37"/>
	</g>
	<g transform="translate(-38,-70) scale(1,1)">
		<path class="st2" d="M804.1,215v37"/>
	</g>
	<g transform="translate(-38,-70) scale(1,1)">
		<g>
			<path class="st2" d="M0,0"/>
			<text transform="matrix(1 0 0 1 729.6382 207.5386)" class="st3 st4">CIDADE</text>
		</g>
	</g>
	<g transform="translate(-38,-70) scale(1,1)">
		<g>
			<path d="M0,0"/>
			<text transform="matrix(1 0 0 1 701 228.9438)" class="st5 st4">PK</text>
		</g>
	</g>
	<g transform="translate(-38,-70) scale(1,1)">
		<g>
			<path d="M0,0"/>
			<text transform="matrix(1 0 0 1 729.0591 229.0771)" class="st5 st4">CDCIDADE</text>
		</g>
	</g>
	<g transform="translate(-38,-70) scale(1,1)">
		<g>
			<path d="M0,0"/>
		</g>
	</g>
	<g transform="translate(-38,-70) scale(1,1)">
		<g>
			<path d="M0,0"/>
		</g>
	</g>
	<g transform="translate(-38,-70) scale(1,1)">
		<g>
			<path d="M0,0"/>
		</g>
	</g>
	<g transform="translate(-38,-70) scale(1,1)">
		<g>
			<path d="M0,0"/>
			<text transform="matrix(1 0 0 1 729.0591 244.0771)" class="st5 st4">NMCIDADE</text>
		</g>
	</g>
	<g transform="translate(-38,-70) scale(1,1)">
		<g>
			<path d="M0,0"/>
		</g>
	</g>
	<g transform="translate(-38,-70) scale(1,1)">
		<g>
			<path d="M0,0"/>
		</g>
	</g>
	<g transform="translate(-38,-70) scale(1,1)">
		<rect x="703" y="311" class="st0" width="118.6" height="60"/>
	</g>
	<g transform="translate(-38,-70) scale(1,1)">
		<rect x="696" y="304" class="st1" width="118.6" height="60"/>
	</g>
	<g transform="translate(-38,-70) scale(1,1)">
		<path class="st2" d="M696,304h118.6v60H696V304z"/>
	</g>
	<g transform="translate(-38,-70) scale(1,1)">
		<path class="st2" d="M696,327h118.6"/>
	</g>
	<g transform="translate(-38,-70) scale(1,1)">
		<path class="st2" d="M724.1,327v37"/>
	</g>
	<g transform="translate(-38,-70) scale(1,1)">
		<path class="st2" d="M805.6,327v37"/>
	</g>
	<g transform="translate(-38,-70) scale(1,1)">
		<g>
			<path class="st2" d="M0,0"/>
			<text transform="matrix(1 0 0 1 729.6382 319.5386)" class="st3 st4">BAIRRO</text>
		</g>
	</g>
	<g transform="translate(-38,-70) scale(1,1)">
		<g>
			<path d="M0,0"/>
			<text transform="matrix(1 0 0 1 701 340.9438)" class="st5 st4">PK</text>
		</g>
	</g>
	<g transform="translate(-38,-70) scale(1,1)">
		<g>
			<path d="M0,0"/>
			<text transform="matrix(1 0 0 1 729.0591 341.0771)" class="st5 st4">CDBAIRRO</text>
		</g>
	</g>
	<g transform="translate(-38,-70) scale(1,1)">
		<g>
			<path d="M0,0"/>
		</g>
	</g>
	<g transform="translate(-38,-70) scale(1,1)">
		<g>
			<path d="M0,0"/>
		</g>
	</g>
	<g transform="translate(-38,-70) scale(1,1)">
		<g>
			<path d="M0,0"/>
		</g>
	</g>
	<g transform="translate(-38,-70) scale(1,1)">
		<g>
			<path d="M0,0"/>
			<text transform="matrix(1 0 0 1 729.0591 356.0771)" class="st5 st4">NMBAIRRO</text>
		</g>
	</g>
	<g transform="translate(-38,-70) scale(1,1)">
		<g>
			<path d="M0,0"/>
		</g>
	</g>
	<g transform="translate(-38,-70) scale(1,1)">
		<g>
			<path d="M0,0"/>
		</g>
	</g>
	<g transform="translate(-38,-70) scale(1,1)">
		<rect x="703" y="431" class="st0" width="117.1" height="75"/>
	</g>
	<g transform="translate(-38,-70) scale(1,1)">
		<rect x="696" y="424" class="st1" width="117.1" height="75"/>
	</g>
	<g transform="translate(-38,-70) scale(1,1)">
		<path class="st2" d="M696,424h117.1v75H696V424z"/>
	</g>
	<g transform="translate(-38,-70) scale(1,1)">
		<path class="st2" d="M696,447h117.1"/>
	</g>
	<g transform="translate(-38,-70) scale(1,1)">
		<path class="st2" d="M724.1,447v52"/>
	</g>
	<g transform="translate(-38,-70) scale(1,1)">
		<path class="st2" d="M804.1,447v52"/>
	</g>
	<g transform="translate(-38,-70) scale(1,1)">
		<g>
			<path class="st2" d="M0,0"/>
			<text transform="matrix(1 0 0 1 706.8818 439.5386)" class="st3 st4">FAIXA_IMOVEL</text>
		</g>
	</g>
	<g transform="translate(-38,-70) scale(1,1)">
		<g>
			<path d="M0,0"/>
			<text transform="matrix(1 0 0 1 701 460.9438)" class="st5 st4">PK</text>
		</g>
	</g>
	<g transform="translate(-38,-70) scale(1,1)">
		<g>
			<path d="M0,0"/>
			<text transform="matrix(1 0 0 1 729.0591 460.9438)" class="st5 st4">NMFAIXA</text>
		</g>
	</g>
	<g transform="translate(-38,-70) scale(1,1)">
		<g>
			<path d="M0,0"/>
		</g>
	</g>
	<g transform="translate(-38,-70) scale(1,1)">
		<g>
			<path d="M0,0"/>
		</g>
	</g>
	<g transform="translate(-38,-70) scale(1,1)">
		<g>
			<path d="M0,0"/>
		</g>
	</g>
	<g transform="translate(-38,-70) scale(1,1)">
		<g>
			<path d="M0,0"/>
			<text transform="matrix(1 0 0 1 729.0591 476.0771)" class="st5 st4">VLMINIMO</text>
		</g>
	</g>
	<g transform="translate(-38,-70) scale(1,1)">
		<g>
			<path d="M0,0"/>
		</g>
	</g>
	<g transform="translate(-38,-70) scale(1,1)">
		<g>
			<path d="M0,0"/>
		</g>
	</g>
	<g transform="translate(-38,-70) scale(1,1)">
		<g>
			<path d="M0,0"/>
		</g>
	</g>
	<g transform="translate(-38,-70) scale(1,1)">
		<g>
			<path d="M0,0"/>
			<text transform="matrix(1 0 0 1 729.0591 491.0771)" class="st5 st4">VLMAXIMO</text>
		</g>
	</g>
	<g transform="translate(-38,-70) scale(1,1)">
		<g>
			<path d="M0,0"/>
		</g>
	</g>
	<g transform="translate(-38,-70) scale(1,1)">
		<g>
			<path d="M0,0"/>
		</g>
	</g>
	<g transform="translate(-38,-70) scale(1,1)">
		<rect x="55" y="375" class="st0" width="153.9" height="165"/>
	</g>
	<g transform="translate(-38,-70) scale(1,1)">
		<rect x="48" y="368" class="st1" width="153.9" height="165"/>
	</g>
	<g transform="translate(-38,-70) scale(1,1)">
		<path class="st2" d="M48,368h153.9v165H48V368z"/>
	</g>
	<g transform="translate(-38,-70) scale(1,1)">
		<path class="st2" d="M48,391h153.9"/>
	</g>
	<g transform="translate(-38,-70) scale(1,1)">
		<path class="st2" d="M76.1,391v142"/>
	</g>
	<g transform="translate(-38,-70) scale(1,1)">
		<path class="st2" d="M192.9,391v142"/>
	</g>
	<g transform="translate(-38,-70) scale(1,1)">
		<g>
			<path class="st2" d="M0,0"/>
			<text transform="matrix(1 0 0 1 81.6382 383.5386)" class="st3 st4">COMPRADOR</text>
		</g>
	</g>
	<g transform="translate(-38,-70) scale(1,1)">
		<g>
			<path d="M0,0"/>
			<text transform="matrix(1 0 0 1 53 404.9438)" class="st5 st4">PK</text>
		</g>
	</g>
	<g transform="translate(-38,-70) scale(1,1)">
		<g>
			<path d="M0,0"/>
			<text transform="matrix(1 0 0 1 81.0591 405.0771)" class="st5 st4">CDCOMPRADOR</text>
		</g>
	</g>
	<g transform="translate(-38,-70) scale(1,1)">
		<g>
			<path d="M0,0"/>
		</g>
	</g>
	<g transform="translate(-38,-70) scale(1,1)">
		<g>
			<path d="M0,0"/>
		</g>
	</g>
	<g transform="translate(-38,-70) scale(1,1)">
		<g>
			<path d="M0,0"/>
		</g>
	</g>
	<g transform="translate(-38,-70) scale(1,1)">
		<g>
			<path d="M0,0"/>
			<text transform="matrix(1 0 0 1 81.0591 420.0771)" class="st5 st4">NMCOMPRADOR</text>
		</g>
	</g>
	<g transform="translate(-38,-70) scale(1,1)">
		<g>
			<path d="M0,0"/>
		</g>
	</g>
	<g transform="translate(-38,-70) scale(1,1)">
		<g>
			<path d="M0,0"/>
		</g>
	</g>
	<g transform="translate(-38,-70) scale(1,1)">
		<g>
			<path d="M0,0"/>
		</g>
	</g>
	<g transform="translate(-38,-70) scale(1,1)">
		<g>
			<path d="M0,0"/>
			<text transform="matrix(1 0 0 1 81.0591 435.0771)" class="st5 st4">NMENDERECO</text>
		</g>
	</g>
	<g transform="translate(-38,-70) scale(1,1)">
		<g>
			<path d="M0,0"/>
		</g>
	</g>
	<g transform="translate(-38,-70) scale(1,1)">
		<g>
			<path d="M0,0"/>
		</g>
	</g>
	<g transform="translate(-38,-70) scale(1,1)">
		<g>
			<path d="M0,0"/>
		</g>
	</g>
	<g transform="translate(-38,-70) scale(1,1)">
		<g>
			<path d="M0,0"/>
			<text transform="matrix(1 0 0 1 81.0591 450.0771)" class="st5 st4">NRCPF</text>
		</g>
	</g>
	<g transform="translate(-38,-70) scale(1,1)">
		<g>
			<path d="M0,0"/>
		</g>
	</g>
	<g transform="translate(-38,-70) scale(1,1)">
		<g>
			<path d="M0,0"/>
		</g>
	</g>
	<g transform="translate(-38,-70) scale(1,1)">
		<g>
			<path d="M0,0"/>
		</g>
	</g>
	<g transform="translate(-38,-70) scale(1,1)">
		<g>
			<path d="M0,0"/>
			<text transform="matrix(1 0 0 1 81.0591 465.0771)" class="st5 st4">NMCIDADE</text>
		</g>
	</g>
	<g transform="translate(-38,-70) scale(1,1)">
		<g>
			<path d="M0,0"/>
		</g>
	</g>
	<g transform="translate(-38,-70) scale(1,1)">
		<g>
			<path d="M0,0"/>
		</g>
	</g>
	<g transform="translate(-38,-70) scale(1,1)">
		<g>
			<path d="M0,0"/>
		</g>
	</g>
	<g transform="translate(-38,-70) scale(1,1)">
		<g>
			<path d="M0,0"/>
			<text transform="matrix(1 0 0 1 81.0591 480.0771)" class="st5 st4">NMBAIRRO</text>
		</g>
	</g>
	<g transform="translate(-38,-70) scale(1,1)">
		<g>
			<path d="M0,0"/>
		</g>
	</g>
	<g transform="translate(-38,-70) scale(1,1)">
		<g>
			<path d="M0,0"/>
		</g>
	</g>
	<g transform="translate(-38,-70) scale(1,1)">
		<g>
			<path d="M0,0"/>
		</g>
	</g>
	<g transform="translate(-38,-70) scale(1,1)">
		<g>
			<path d="M0,0"/>
			<text transform="matrix(1 0 0 1 81.0591 495.0771)" class="st5 st4">SGESTADO</text>
		</g>
	</g>
	<g transform="translate(-38,-70) scale(1,1)">
		<g>
			<path d="M0,0"/>
		</g>
	</g>
	<g transform="translate(-38,-70) scale(1,1)">
		<g>
			<path d="M0,0"/>
		</g>
	</g>
	<g transform="translate(-38,-70) scale(1,1)">
		<g>
			<path d="M0,0"/>
		</g>
	</g>
	<g transform="translate(-38,-70) scale(1,1)">
		<g>
			<path d="M0,0"/>
			<text transform="matrix(1 0 0 1 81.0591 510.0771)" class="st5 st4">TELEFONE</text>
		</g>
	</g>
	<g transform="translate(-38,-70) scale(1,1)">
		<g>
			<path d="M0,0"/>
		</g>
	</g>
	<g transform="translate(-38,-70) scale(1,1)">
		<g>
			<path d="M0,0"/>
		</g>
	</g>
	<g transform="translate(-38,-70) scale(1,1)">
		<g>
			<path d="M0,0"/>
		</g>
	</g>
	<g transform="translate(-38,-70) scale(1,1)">
		<g>
			<path d="M0,0"/>
			<text transform="matrix(1 0 0 1 81.0591 524.9438)" class="st5 st4">EMAIL</text>
		</g>
	</g>
	<g transform="translate(-38,-70) scale(1,1)">
		<g>
			<path d="M0,0"/>
		</g>
	</g>
	<g transform="translate(-38,-70) scale(1,1)">
		<g>
			<path d="M0,0"/>
		</g>
	</g>
	<g transform="translate(-38,-70) scale(1,1)">
		<rect x="415" y="407" class="st0" width="98.6" height="60"/>
	</g>
	<g transform="translate(-38,-70) scale(1,1)">
		<rect x="408" y="400" class="st1" width="98.6" height="60"/>
	</g>
	<g transform="translate(-38,-70) scale(1,1)">
		<path class="st2" d="M408,400h98.6v60H408V400z"/>
	</g>
	<g transform="translate(-38,-70) scale(1,1)">
		<path class="st2" d="M408,423h98.6"/>
	</g>
	<g transform="translate(-38,-70) scale(1,1)">
		<path class="st2" d="M418,423v37"/>
	</g>
	<g transform="translate(-38,-70) scale(1,1)">
		<path class="st2" d="M497.6,423v37"/>
	</g>
	<g transform="translate(-38,-70) scale(1,1)">
		<g>
			<path class="st2" d="M0,0"/>
		</g>
	</g>
	<g transform="translate(-38,-70) scale(1,1)">
		<g>
			<path class="st2" d="M0,0"/>
		</g>
	</g>
	<g transform="translate(-38,-70) scale(1,1)">
		<g>
			<path class="st2" d="M0,0"/>
			<text transform="matrix(1 0 0 1 423 437.0771)" class="st5 st4">VLOFERTA</text>
		</g>
	</g>
	<g transform="translate(-38,-70) scale(1,1)">
		<g>
			<path d="M0,0"/>
		</g>
	</g>
	<g transform="translate(-38,-70) scale(1,1)">
		<g>
			<path d="M0,0"/>
		</g>
	</g>
	<g transform="translate(-38,-70) scale(1,1)">
		<g>
			<path d="M0,0"/>
		</g>
	</g>
	<g transform="translate(-38,-70) scale(1,1)">
		<g>
			<path d="M0,0"/>
			<text transform="matrix(1 0 0 1 423 452.0771)" class="st5 st4">DTOFERTA</text>
		</g>
	</g>
	<g transform="translate(-38,-70) scale(1,1)">
		<g>
			<path d="M0,0"/>
		</g>
	</g>
	<g transform="translate(-38,-70) scale(1,1)">
		<g>
			<path d="M0,0"/>
		</g>
	</g>
</g>
</svg>
